HIERARCHY
ROOT Hips
{
	OFFSET	0	0	0
	CHANNELS 6  Xposition Yposition Zposition Xrotation Yrotation Zrotation
	JOINT Spine
	{
		OFFSET	0	7.09727	1.42491
		CHANNELS 3  Xrotation Yrotation Zrotation
		JOINT Spine1
		{
			OFFSET	0	12.1515	-2.16991
			CHANNELS 3  Xrotation Yrotation Zrotation
			JOINT Spine2
			{
				OFFSET	0	9.21125	0.987307
				CHANNELS 3  Xrotation Yrotation Zrotation
				JOINT Spine3
				{
					OFFSET	0	11.0231	3.27656
					CHANNELS 3  Xrotation Yrotation Zrotation
					JOINT Spine4
					{
						OFFSET	0	16.3177	-1.67083
						CHANNELS 3  Xrotation Yrotation Zrotation
						JOINT Neck
						{
							OFFSET	0	7.78996	-5.45731
							CHANNELS 3  Xrotation Yrotation Zrotation
							JOINT Head
							{
								OFFSET	0	9.35229	-2.79918
								CHANNELS 3  Xrotation Yrotation Zrotation
								End Site
								{
									OFFSET	0	19.5075	-0.943909
								}
							}
						}
					}
					JOINT LeftShoulder
					{
						OFFSET	-4.687	19.8329	-9.3523
						CHANNELS 3  Xrotation Yrotation Zrotation
						JOINT LeftArm
						{
							OFFSET	-10.2164	-2.79918	3.59122
							CHANNELS 3  Xrotation Yrotation Zrotation
							JOINT LeftForeArm
							{
								OFFSET	-30.9138	-1.41096	2.20659
								CHANNELS 3  Xrotation Yrotation Zrotation
								JOINT LeftHand
								{
									OFFSET	-25.9068	-1.7903	1.8492
									CHANNELS 3  Xrotation Yrotation Zrotation
									End Site
									{
										OFFSET	-9.45469	-0.653372	0.674821
									}
								}
							}
						}
					}
					JOINT RightShoulder
					{
						OFFSET	4.687	19.8329	-9.3523
						CHANNELS 3  Xrotation Yrotation Zrotation
						JOINT RightArm
						{
							OFFSET	10.2164	-2.79918	3.59122
							CHANNELS 3  Xrotation Yrotation Zrotation
							JOINT RightForeArm
							{
								OFFSET	30.9138	-1.41096	2.20659
								CHANNELS 3  Xrotation Yrotation Zrotation
								JOINT RightHand
								{
									OFFSET	25.9068	-1.7903	1.8492
									CHANNELS 3  Xrotation Yrotation Zrotation
									End Site
									{
										OFFSET	9.45469	-0.653372	0.674821
									}
								}
							}
						}
					}
				}
			}
		}
	}
	JOINT LeftUpLeg
	{
		OFFSET	-9.67573	-3.54864	-0.712453
		CHANNELS 3  Xrotation Yrotation Zrotation
		JOINT LeftLeg
		{
			OFFSET	-2.14499	-42.0303	-0.657025
			CHANNELS 3  Xrotation Yrotation Zrotation
			JOINT LeftFoot
			{
				OFFSET	-2.09953	-38.701	3.32829
				CHANNELS 3  Xrotation Yrotation Zrotation
				JOINT LeftToeBase
				{
					OFFSET	0	-4.7778	-12.6898
					CHANNELS 3  Xrotation Yrotation Zrotation
					End Site
					{
						OFFSET	0	-1.91111	-7.64447
					}
				}
			}
		}
	}
	JOINT RightUpLeg
	{
		OFFSET	9.67573	-3.54864	-0.712453
		CHANNELS 3  Xrotation Yrotation Zrotation
		JOINT RightLeg
		{
			OFFSET	2.14499	-42.0303	-0.657025
			CHANNELS 3  Xrotation Yrotation Zrotation
			JOINT RightFoot
			{
				OFFSET	2.09953	-38.701	3.32829
				CHANNELS 3  Xrotation Yrotation Zrotation
				JOINT RightToeBase
				{
					OFFSET	0	-4.7778	-12.6898
					CHANNELS 3  Xrotation Yrotation Zrotation
					End Site
					{
						OFFSET	0	-1.91111	-7.64447
					}
				}
			}
		}
	}
}
MOTION
Frames: 18
Frame Time: 0.020409
 0 -10.1591 2.86036 -0 0 -0 -0 0 -0 -0 0 -0 -0 0 -0 -0 0 -0 -0 0 -0 -0 0 -0 -0 0 -0 -0 0 -0 -0 0 -0 -0 0 -0 -0 0 -0 -0 0 -0 -0 0 -0 -0 0 -0 -0 0 -0 -0 0 -0 -0 0 -0 -0 0 -0 -0 0 -0 -0 0 -0 -0 0 -0 -0 0 -0 -0 0 -0
 67.548 42.7116 74.5699 78.7739 174.977 -171.902 179.998 -179.681 179.58 14.4487 -0.637083 -0.700473 14.3166 -1.91125 -0.70082 9.28582 -0.318557 -0.420265 5.6343 -0.0137535 -0.139409 2.31364 0.0599367 1.97203 0.699446 -2.09892 0.443176 170.972 169.044 164.234 25.2172 -1.26872 20.3476 71.5659 -41.9657 61.6701 -0 1.092 -4.50258 174.077 -163.91 -170.571 42.623 16.3493 -28.7997 107.474 95.3707 -105.846 -0 -7.04085 6.36491 34.5142 4.8751 -5.8988 132.516 -178.985 -166.295 63.0076 67.2304 33.7446 156.104 180 -180 36.2201 13.9478 -7.37423 118.303 -170.88 177.361 160.996 -179.877 176.253 158.461 180 -180
 68.481 42.6189 74.6451 78.4698 173.335 -170.562 179.998 -179.607 179.649 14.4052 -0.785487 -0.584217 14.294 -2.35646 -0.584657 9.32087 -0.392756 -0.350506 5.47066 -0.0111384 -0.1163 1.90512 -0.531161 0.172536 0.571188 -1.07829 -0.0265582 171.29 169.08 164.81 24.0075 -2.18841 21.0977 71.027 -42.7164 61.1705 -0 0.945685 -4.11752 174.343 -164.069 -170.978 45.3893 14.5072 -27.9591 116.015 96.1639 -114.545 -0 -7.47135 6.93511 37.2466 5.44963 -6.54537 131.52 175.788 -172.067 47.7346 36.5839 28.6472 154.968 180 -180 34.9819 12.5235 -10.4289 115.388 -169.577 177.659 158.067 -179.886 175.952 158.452 180 -180
 68.5291 43.8404 74.2692 77.9992 176.82 -173.013 8.43348e-06 -0.00314633 0.153576 14.5524 -0.00629261 0.255961 14.4947 -0.0188778 0.255961 9.52824 -0.00314633 0.153576 5.25531 0.00468889 0.050977 1.08571 -2.03247 -3.53989 0.346677 0.400633 -1.02149 172.148 168.854 166.41 23.4299 -2.56425 21.563 70.387 -43.5726 60.1359 -0 0.360652 -3.45348 175.116 -165.335 -172.07 47.9287 12.6433 -28.0082 128.917 97.6881 -127.607 -0 -8.17467 7.52145 47.7003 -4.45544 -0.986515 126.044 -178.255 179.99 157.57 179.998 -169.285 151.78 180 -180 36.104 12.7687 -10.9109 113.195 -169.009 -179.911 156.547 -179.953 175.737 158.434 180 -180
 68.8405 44.1007 74.2392 77.7003 176.326 -172.724 1.92314e-05 -0.00519699 0.212021 14.5262 -0.0103939 0.353369 14.5483 -0.0311816 0.353369 9.75005 -0.00519699 0.212021 4.68823 0.00577643 0.0704373 179.36 -176.483 173.823 179.868 179.645 178.225 172.571 168.45 167.24 22.0381 -2.8216 22.4531 69.3504 -44.2737 59.2791 -0 0.0842038 -2.68369 175.05 -166.749 -171.784 49.9642 10.9646 -27.3985 136.059 99.3698 -134.934 -0 -8.59262 7.88851 49.1759 -3.94272 -1.66922 129.089 -178.193 -179.991 157.353 -179.969 -169.611 151.725 180 -180 35.0099 10.9722 -11.4043 111.512 -169.118 179.857 156.535 -179.972 174.615 158.413 180 -180
 68.5723 44.1343 74.2799 77.9606 176.386 -172.543 1.99041e-05 -0.00525721 0.216923 14.4965 -0.0105143 0.361539 14.5904 -0.0315429 0.361539 9.94552 -0.00525721 0.216923 4.17594 0.00526542 0.0721158 177.76 -174.92 171.414 179.438 -179.658 177.505 172.947 167.761 168.025 20.601 -3.10355 23.3984 68.9928 -45.279 59.1613 -0 -0.159236 -1.46298 174.979 -168.657 -171.431 51.8737 9.11784 -26.6953 138.604 100.987 -137.593 -0 -8.60546 8.54156 49.1302 -3.91412 -2.08157 132.44 -178.765 179.9 157.363 -179.994 -170.135 151.681 180 -180 33.5265 8.6172 -11.3916 109.127 -170.642 179.883 156.624 -179.982 172.736 158.372 180 -180
 68.2795 44.7451 74.4246 77.8514 177.021 -172.711 8.0133e-06 -0.00237467 0.193343 14.4331 -0.0047493 0.322238 14.5808 -0.0142479 0.322238 10.065 -0.00237467 0.193343 3.77748 0.00424592 0.0643076 176.485 -173.326 169.086 179.115 -178.685 176.791 173.472 167.858 168.926 19.4787 -3.23881 24.0876 67.9021 -46.0243 58.134 -0 -0.166181 -0.444476 174.684 -171.272 -170.595 53.1026 7.62854 -25.8326 141.059 102.915 -140.159 -0 -8.23961 9.09877 49.7351 -3.97302 -2.16469 136.352 -178.785 -179.874 157.02 -179.981 -170.307 151.649 180 -180 32.9069 7.3345 -10.9192 107.724 -172.525 -179.944 156.628 -179.977 170.866 158.319 180 -180
 68.0932 45.057 74.4722 77.9191 177.661 -172.815 1.84188e-05 -0.00687907 0.15341 14.365 -0.0137581 0.255683 14.5396 -0.0412742 0.255683 10.1001 -0.00687907 0.15341 3.56682 0.00318134 0.0510376 175.803 -172.426 167.607 178.955 -178.223 176.351 174.208 168.077 170.171 19.9264 -2.8754 24.1045 66.7923 -46.6443 57.1121 -0 -0.260468 0.0460046 174.117 -173.873 -169.237 54.1884 6.72857 -24.429 142.06 104.653 -141.26 -0 -7.68809 9.63542 50.3194 -3.94911 -1.9773 140.261 -178.655 -179.88 156.495 -180 -170.398 151.622 180 -180 32.3653 6.17281 -10.8001 106.255 -174.879 179.949 156.747 -179.994 168.928 158.255 180 -180
 67.74 45.0899 74.4878 77.7668 178.258 -173.339 2.17511e-05 -0.00796988 0.156369 14.3394 -0.0159396 0.260615 14.4914 -0.0478189 0.260615 10.0153 -0.00796988 0.156369 3.71649 0.00337859 0.0520134 176.216 -171.89 167.365 179.09 -177.716 176.23 174.816 167.538 171.288 20.0774 -2.47805 23.6093 66.4146 -47.45 57.2266 -0 -0.316652 0.584185 173.16 -176.493 -167.074 54.9974 6.1469 -22.281 142.659 106.532 -142.093 -0 -6.85573 10.2508 50.75 -3.83548 -1.32574 142.587 -178.377 -179.973 156.38 179.921 -170.379 151.6 180 -180 31.7294 5.49514 -10.141 105.367 -177.326 -179.936 156.77 -179.994 168.513 158.186 180 -180
 67.425 45.0212 74.4268 77.6563 178.461 -173.812 2.0718e-05 -0.00743219 0.159718 14.3567 -0.0148643 0.266196 14.4451 -0.0445928 0.266196 9.83587 -0.00743219 0.159718 4.16772 0.00386923 0.0530984 177.501 -171.745 167.784 179.471 -177.689 176.313 175.378 166.964 172.312 19.8771 -2.20973 23.3039 66.6309 -48.3556 57.7781 -0 -0.24033 1.16294 172.502 -178.686 -165.477 55.9279 5.44341 -20.2398 142.937 108.314 -142.609 -0 -6.1578 10.7492 50.7443 -3.76933 -0.591992 144.248 -177.995 179.881 156.584 179.892 -170.337 151.578 180 -180 31.4073 4.95908 -9.43311 104.581 -179.66 179.978 156.94 179.992 168.512 158.097 180 -180
 67.0706 44.7662 74.5974 77.5631 178.965 -174.501 2.35034e-05 -0.00867058 0.155312 14.3886 -0.017341 0.258853 14.4033 -0.0520231 0.258853 9.63599 -0.00867058 0.155312 4.69447 0.00423702 0.0515969 179.05 -171.601 168.727 179.913 -177.21 176.506 175.687 166.54 172.878 19.6997 -2.08848 22.4198 66.2765 -49.1206 57.7096 -0 0.174649 1.6065 171.675 179.177 -163.494 57.0174 5.05403 -18.4781 143.531 110.228 -143.556 -0 -5.83361 10.9926 51.1451 -4.54595 0.595037 146.346 -177.494 179.762 156.34 179.934 -170.474 151.552 180 -180 30.8457 4.68324 -8.60454 104.644 177.82 179.964 156.941 179.992 168.51 157.968 180 -180
 66.8152 45.0844 74.7634 77.4582 179.619 -175.303 1.99035e-05 -0.00601475 0.189597 14.4281 -0.0120294 0.315996 14.3631 -0.0360882 0.315996 9.42323 -0.00601475 0.189597 5.26544 0.00579979 0.0629325 0.745087 -8.99862 -10.1868 0.391334 -4.21011 -3.32172 175.797 166.73 173.041 19.7868 -2.63799 21.6839 65.9306 -49.7759 57.6074 -0 0.997535 1.73966 171.182 177.292 -162.197 57.2057 4.76723 -18.0125 143.68 111.773 -143.795 -0 -5.15403 11.2056 51.4169 -5.90383 1.67133 146.445 -177.474 179.878 156.652 179.964 -170.787 151.511 180 -180 31.2233 4.9592 -7.76649 104.14 174.872 -179.968 156.951 -179.975 168.523 157.804 180 -180
 66.7671 44.5646 74.7979 77.6267 -179.63 -175.911 180 179.997 -179.805 14.4393 0.00594229 0.324912 14.3275 0.0178269 0.324912 9.29113 0.00297117 0.194947 5.59491 0.00633543 0.0646729 1.76494 -10.033 -9.49619 0.673005 -6.27443 -3.28451 175.848 166.402 173.16 20.518 -2.87744 20.4657 66.0144 -50.4795 57.9896 -0 1.52707 1.7495 170.487 176.058 -160.536 57.1749 4.99912 -17.5717 143.582 112.992 -143.896 -0 -4.48203 11.51 51.443 -6.92639 2.92344 146.797 -177.498 -179.949 156.674 -179.99 -171.09 151.476 180 -180 31.7887 5.28362 -7.23247 103.319 172.541 -179.769 157.954 -179.901 168.563 157.646 180 -180
 66.2571 44.0842 74.7367 77.7057 -178.232 -176.698 180 179.992 -179.804 14.483 0.0158448 0.327329 14.3027 0.0475343 0.327329 9.11495 0.00792246 0.196397 6.08866 0.00694378 0.0650965 3.37462 -11.2948 -7.75708 1.09475 -9.68516 -3.02038 175.861 166.771 173.144 22.1287 -4.01473 19.0691 65.8385 -51.0033 57.8993 -0 1.94616 1.31119 170.173 175.636 -159.796 55.8595 5.38486 -18.311 141.579 112.902 -141.852 -0 -3.33783 11.921 50.8475 -6.88903 3.87662 145.619 -178.489 -179.875 157.425 -179.987 -171.688 151.451 180 -180 32.5781 6.90388 -6.40546 103.225 171.053 -179.903 156.996 -179.879 168.687 157.486 180 -180
 66.2475 43.5623 74.6126 78.1381 -177.694 -176.651 1.28607e-05 -0.00511522 0.144053 14.5066 -0.0102304 0.240089 14.3114 -0.0306912 0.240089 9.08523 -0.00511522 0.144053 6.20236 0.00518785 0.0477366 3.92937 -11.4629 -5.71023 1.19698 -12.1493 -2.57246 176.048 165.821 173.55 24.557 -4.89263 17.5001 67.4816 -52.0291 60.267 -0 2.20778 0.691761 169.999 175.853 -159.447 54.5095 5.82108 -19.6138 139.808 112.77 -140.062 -0 -2.2135 12.2504 50.1887 -6.3292 3.58315 143.45 179.925 -179.827 157.967 -179.986 -172.387 151.431 180 -180 33.1725 7.29598 -6.35333 104.609 170.331 179.86 157.146 -179.88 168.75 157.328 180 -180
 66.5195 44.1954 74.5567 78.2945 -176.209 -176.951 180 179.982 -179.859 14.4266 0.0353171 0.234926 14.2907 0.105951 0.234926 9.21094 0.0176586 0.140956 5.75816 0.00471402 0.0467481 2.90389 -11.0623 -3.96525 0.837358 -13.8677 -2.17953 176.04 166.564 173.463 27.2462 -6.57303 16.5151 67.5052 -52.6087 60.4706 -0 2.58923 -0.0387471 170.034 175.687 -159.499 53.6499 6.50608 -21.9224 139.504 113.089 -139.543 -0 -1.49199 12.6535 50.5372 -6.57504 3.64666 141.561 178.957 -179.978 157.315 -179.944 -172.869 151.421 180 -180 35.5952 8.413 -6.83705 105.802 169.961 179.938 157.445 -179.912 168.689 157.167 180 -180
 66.2468 44.4001 74.3447 78.7114 -175.632 -177.21 180 179.975 -179.836 14.3247 0.0493 0.27345 14.2523 0.1479 0.273451 9.33418 0.0246502 0.16407 5.27835 0.00503117 0.0544581 1.72685 -10.7092 -2.59237 0.446732 -15.1588 -1.89165 175.653 167.721 172.694 29.1383 -8.50091 15.9424 66.663 -52.9297 59.5441 -0 2.91624 -0.736912 170.282 176.237 -160.119 52.0532 6.95578 -24.2687 138.104 112.757 -138.372 -0 -0.879169 12.8994 49.9621 -6.39942 3.90035 139.041 178.104 -179.814 157.414 -179.976 -173.19 151.415 180 -180 37.7144 10.289 -7.07701 106.636 170.015 -179.99 157.785 -179.993 168.722 157.017 180 -180
 66.4125 44.4842 74.2054 79.1597 -175.648 -176.824 180 179.983 -179.882 14.2271 0.0343663 0.196417 14.2279 0.103099 0.196417 9.48788 0.0171832 0.11785 4.73515 0.00324284 0.0391493 0.31187 -10.2439 -1.43576 179.994 -164.041 178.344 175.063 168.876 171.551 30.3343 -10.4342 15.7482 65.8637 -53.1498 58.7088 -0 3.14135 -1.45685 170.399 177.315 -160.533 50.196 7.4757 -26.2132 136.491 112.242 -136.782 -0 -0.347023 13.0009 49.3041 -6.20691 3.81384 136.967 177.383 -179.886 157.46 -179.969 -173.419 151.413 180 -180 39.8253 11.6954 -7.86798 107.929 170.396 179.812 157.704 -179.992 168.78 156.878 180 -180
